/* XPM */
static const char * SDL_icon_xpm[] = {
"64 64 34 1",
" 	c None",
".	c #FFFFFF",
"+	c #B37347",
"@	c #E39767",
"#	c #FFCB97",
"$	c #7F532F",
"%	c #FFCFB3",
"&	c #533F1F",
"*	c #676767",
"=	c #878787",
"-	c #4F4F4F",
";	c #414183",
">	c #D1D1D1",
",	c #C8C8C8",
"'	c #5252FF",
")	c #21224E",
"!	c #FF3F3F",
"~	c #FF5F5F",
"{	c #373737",
"]	c #2F2F2F",
"^	c #9F9F9F",
"/	c #FFB78B",
"(	c #BFBFBF",
"_	c #E4E4E4",
":	c #979797",
"<	c #272727",
"[	c #C39B2F",
"}	c #474747",
"|	c #752900",
"1	c #EBDB57",
"2	c #FFFF00",
"3	c #AF0000",
"4	c #5F5F5F",
"5	c #DF0000",
"                        ................                        ",
"                        ................                        ",
"                        ................                        ",
"                        ................                        ",
"                ........++++++++++++++++........                ",
"                ........++++++++++++++++........                ",
"                ........++++++++++++++++........                ",
"                ........++++++++++++++++........                ",
"            ....++++@@@@################@@@@++++....            ",
"            ....++++@@@@################@@@@++++....            ",
"            ....++++@@@@################@@@@++++....            ",
"            ....++++@@@@################@@@@++++....            ",
"        ....$$$$@@@@####%%%%........%%%%####@@@@$$$$....        ",
"        ....$$$$@@@@####%%%%........%%%%####@@@@$$$$....        ",
"        ....$$$$@@@@####%%%%........%%%%####@@@@$$$$....        ",
"        ....$$$$@@@@####%%%%........%%%%####@@@@$$$$....        ",
"........&&&&++++############%%%%%%%%############++++&&&&........",
"........&&&&++++############%%%%%%%%############++++&&&&........",
"........&&&&++++############%%%%%%%%############++++&&&&........",
"........&&&&++++############%%%%%%%%############++++&&&&........",
"****====----@@@@####;;;;;;;;########;;;;;;;;####@@@@----====****",
"****====----@@@@####;;;;;;;;########;;;;;;;;####@@@@----====****",
"****====----@@@@####;;;;;;;;########;;;;;;;;####@@@@----====****",
"****====----@@@@####;;;;;;;;########;;;;;;;;####@@@@----====****",
">>>>,,,,****====++++''''''''@@@@@@@@''''''''++++====****,,,,>>>>",
">>>>,,,,****====++++''''''''@@@@@@@@''''''''++++====****,,,,>>>>",
">>>>,,,,****====++++''''''''@@@@@@@@''''''''++++====****,,,,>>>>",
">>>>,,,,****====++++''''''''@@@@@@@@''''''''++++====****,,,,>>>>",
"====****,,,,****====))))))))!!!!!!!!))))))))====****,,,,****====",
"====****,,,,****====))))))))!!!!!!!!))))))))====****,,,,****====",
"====****,,,,****====))))))))!!!!!!!!))))))))====****,,,,****====",
"====****,,,,****====))))))))!!!!!!!!))))))))====****,,,,****====",
">>>>>>>>>>>>,,,,,,,,****----~~~~~~~~----****,,,,,,,,>>>>>>>>>>>>",
">>>>>>>>>>>>,,,,,,,,****----~~~~~~~~----****,,,,,,,,>>>>>>>>>>>>",
">>>>>>>>>>>>,,,,,,,,****----~~~~~~~~----****,,,,,,,,>>>>>>>>>>>>",
">>>>>>>>>>>>,,,,,,,,****----~~~~~~~~----****,,,,,,,,>>>>>>>>>>>>",
"============================~~~~~~~~============================",
"============================~~~~~~~~============================",
"============================~~~~~~~~============================",
"============================~~~~~~~~============================",
"{{{{]]]]^^^^////((((____::::________::::____((((////^^^^]]]]{{{{",
"{{{{]]]]^^^^////((((____::::________::::____((((////^^^^]]]]{{{{",
"{{{{]]]]^^^^////((((____::::________::::____((((////^^^^]]]]{{{{",
"{{{{]]]]^^^^////((((____::::________::::____((((////^^^^]]]]{{{{",
"<<<<[[[[}}}}++++////....((((........((((....////++++}}}}[[[[<<<<",
"<<<<[[[[}}}}++++////....((((........((((....////++++}}}}[[[[<<<<",
"<<<<[[[[}}}}++++////....((((........((((....////++++}}}}[[[[<<<<",
"<<<<[[[[}}}}++++////....((((........((((....////++++}}}}[[[[<<<<",
"<<<<[[[[[[[[}}}}||||@@@@////########////@@@@||||}}}}[[[[[[[[<<<<",
"<<<<[[[[[[[[}}}}||||@@@@////########////@@@@||||}}}}[[[[[[[[<<<<",
"<<<<[[[[[[[[}}}}||||@@@@////########////@@@@||||}}}}[[[[[[[[<<<<",
"<<<<[[[[[[[[}}}}||||@@@@////########////@@@@||||}}}}[[[[[[[[<<<<",
"}}}}1111222222223333++++||||||||||||||||++++3333222222221111}}}}",
"}}}}1111222222223333++++||||||||||||||||++++3333222222221111}}}}",
"}}}}1111222222223333++++||||||||||||||||++++3333222222221111}}}}",
"}}}}1111222222223333++++||||||||||||||||++++3333222222221111}}}}",
"444422222222[[[[333333333333::::::::333333333333[[[[222222224444",
"444422222222[[[[333333333333::::::::333333333333[[[[222222224444",
"444422222222[[[[333333333333::::::::333333333333[[[[222222224444",
"444422222222[[[[333333333333::::::::333333333333[[[[222222224444",
"44442222[[[[}}}}555555555555>>>>>>>>555555555555}}}}[[[[22224444",
"44442222[[[[}}}}555555555555>>>>>>>>555555555555}}}}[[[[22224444",
"44442222[[[[}}}}555555555555>>>>>>>>555555555555}}}}[[[[22224444",
"44442222[[[[}}}}555555555555>>>>>>>>555555555555}}}}[[[[22224444"};
